<svg xmlns="http://www.w3.org/2000/svg" viewBox="0 0 128 128"><rect width="128" height="128" rx="15" fill="#F7DF1E"/><path d="M88.5 95.7c-1.8 3.1-4.7 5.4-9.2 5.4-4.9 0-8-2.4-8-5.7 0-3.1 2.5-4.9 6.8-6.9l2.3-1c1.6-.7 2.6-1.1 2.6-2.1 0-1-1-1.7-2.8-1.7-1.9 0-3.2.6-4.4 2.1l-3.2-2.1c2.2-2.6 5.6-4.3 9.8-4.3 4 0 7 1.5 8.8 4.4 1.9 3 1.7 6.2.1 8.6zM58 98.5c-2.3 1.3-5.3 2.4-10.1 2.4-5.2 0-8.6-2.6-8.6-6.2 0-3.4 2.3-5.4 7.4-7.7l2.6-1.1c1-.4 1.7-.7 1.7-1.5 0-.8-.6-1.3-1.9-1.3-1.3 0-2.2.4-3.2 1l-2.2-2.8c1.9-1.4 4.4-2.8 8.9-2.8 4.5 0 7.4 1.6 8.9 4.8 1.6 3.4 1.1 6.8-.5 8.6-1.6 1.9-4.2 3-7.5 4.8z" fill="#000"/></svg>